<svg xmlns="http://www.w3.org/2000/svg" width="52" height="53" viewBox="0 0 52 53" fill="none"><rect y="0.59375" width="52" height="52" rx="26" fill="#FEFEFE" fill-opacity="0.1"></rect><rect x="6" y="6.59375" width="40" height="40" rx="20" fill="#FEFEFE" fill-opacity="0.1"></rect><path d="M20.22 25.7497C20.188 24.7897 20.3 23.9017 20.556 23.0857C20.812 22.2537 21.196 21.5337 21.708 20.9257C22.22 20.3017 22.86 19.8217 23.628 19.4857C24.412 19.1337 25.308 18.9577 26.316 18.9577C27.084 18.9577 27.812 19.0777 28.5 19.3177C29.204 19.5577 29.82 19.9017 30.348 20.3497C30.876 20.7977 31.292 21.3497 31.596 22.0057C31.916 22.6617 32.076 23.3977 32.076 24.2137C32.076 25.0617 31.94 25.7897 31.668 26.3977C31.396 27.0057 31.036 27.5497 30.588 28.0297C30.14 28.4937 29.628 28.9177 29.052 29.3017C28.492 29.6857 27.924 30.0697 27.348 30.4537C26.772 30.8217 26.212 31.2217 25.668 31.6537C25.124 32.0857 24.644 32.5897 24.228 33.1657H32.172V36.0938H19.836C19.836 35.1177 19.972 34.2697 20.244 33.5497C20.532 32.8297 20.916 32.1897 21.396 31.6297C21.876 31.0537 22.436 30.5257 23.076 30.0457C23.732 29.5657 24.42 29.0777 25.14 28.5817C25.508 28.3257 25.9 28.0697 26.316 27.8137C26.732 27.5417 27.108 27.2457 27.444 26.9257C27.796 26.6057 28.084 26.2457 28.308 25.8457C28.548 25.4457 28.668 24.9897 28.668 24.4777C28.668 23.6617 28.428 23.0297 27.948 22.5817C27.484 22.1177 26.884 21.8857 26.148 21.8857C25.652 21.8857 25.228 22.0057 24.876 22.2457C24.54 22.4697 24.268 22.7737 24.06 23.1577C23.852 23.5257 23.7 23.9417 23.604 24.4057C23.524 24.8537 23.484 25.3017 23.484 25.7497H20.22Z" fill="white"></path></svg>