<svg xmlns="http://www.w3.org/2000/svg" width="52" height="53" viewBox="0 0 52 53" fill="none"><rect y="0.59375" width="52" height="52" rx="26" fill="#FEFEFE" fill-opacity="0.1"></rect><rect x="6" y="6.59375" width="40" height="40" rx="20" fill="#FEFEFE" fill-opacity="0.1"></rect><path d="M24.804 26.0857C25.172 26.1177 25.564 26.1177 25.98 26.0857C26.396 26.0537 26.78 25.9657 27.132 25.8217C27.5 25.6617 27.796 25.4377 28.02 25.1497C28.26 24.8617 28.38 24.4777 28.38 23.9977C28.38 23.2777 28.14 22.7257 27.66 22.3417C27.18 21.9577 26.628 21.7657 26.004 21.7657C25.14 21.7657 24.484 22.0537 24.036 22.6297C23.604 23.1897 23.396 23.9017 23.412 24.7657H20.172C20.204 23.9017 20.356 23.1177 20.628 22.4137C20.916 21.6937 21.308 21.0777 21.804 20.5657C22.316 20.0537 22.924 19.6617 23.628 19.3897C24.332 19.1017 25.116 18.9577 25.98 18.9577C26.652 18.9577 27.324 19.0617 27.996 19.2697C28.668 19.4617 29.268 19.7577 29.796 20.1577C30.34 20.5577 30.78 21.0457 31.116 21.6217C31.452 22.1977 31.62 22.8617 31.62 23.6137C31.62 24.4297 31.42 25.1497 31.02 25.7737C30.636 26.3977 30.052 26.8217 29.268 27.0457V27.0937C30.196 27.3017 30.924 27.7497 31.452 28.4377C31.98 29.1257 32.244 29.9497 32.244 30.9097C32.244 31.7897 32.068 32.5737 31.716 33.2617C31.38 33.9497 30.924 34.5257 30.348 34.9897C29.772 35.4537 29.108 35.8057 28.356 36.0457C27.604 36.2858 26.82 36.4058 26.004 36.4058C25.06 36.4058 24.196 36.2698 23.412 35.9977C22.644 35.7257 21.988 35.3337 21.444 34.8217C20.9 34.2937 20.476 33.6537 20.172 32.9017C19.884 32.1497 19.748 31.2857 19.764 30.3097H23.004C23.02 30.7577 23.092 31.1897 23.22 31.6057C23.348 32.0057 23.532 32.3577 23.772 32.6617C24.012 32.9497 24.308 33.1817 24.66 33.3577C25.028 33.5337 25.46 33.6217 25.956 33.6217C26.724 33.6217 27.372 33.3897 27.9 32.9258C28.428 32.4457 28.692 31.7977 28.692 30.9817C28.692 30.3417 28.564 29.8537 28.308 29.5177C28.068 29.1817 27.756 28.9417 27.372 28.7977C26.988 28.6377 26.564 28.5497 26.1 28.5337C25.652 28.5017 25.22 28.4857 24.804 28.4857V26.0857Z" fill="white"></path></svg>